<?xml version="1.0" encoding="UTF-8" standalone="no"?>
<?xml version="1.0" encoding="UTF-8"?><svg
   xmlns:dc="http://purl.org/dc/elements/1.1/"
   xmlns:cc="http://creativecommons.org/ns#"
   xmlns:rdf="http://www.w3.org/1999/02/22-rdf-syntax-ns#"
   xmlns:svg="http://www.w3.org/2000/svg"
   xmlns="http://www.w3.org/2000/svg"
   xmlns:sodipodi="http://sodipodi.sourceforge.net/DTD/sodipodi-0.dtd"
   xmlns:inkscape="http://www.inkscape.org/namespaces/inkscape"
   version="1.1"
   id="grocery-15"
   width="16"
   height="16"
   viewBox="0 0 16 16"
   sodipodi:docname="grocery_maki.svg"
   inkscape:version="0.92.3 (2405546, 2018-03-11)">
  <metadata
     id="metadata9">
    <rdf:RDF>
      <cc:Work
         rdf:about="">
        <dc:format>image/svg+xml</dc:format>
        <dc:type
           rdf:resource="http://purl.org/dc/dcmitype/StillImage" />
        <dc:title></dc:title>
      </cc:Work>
    </rdf:RDF>
  </metadata>
  <defs
     id="defs7" />
  <sodipodi:namedview
     pagecolor="#ffffff"
     bordercolor="#666666"
     borderopacity="1"
     objecttolerance="10"
     gridtolerance="10"
     guidetolerance="10"
     inkscape:pageopacity="0"
     inkscape:pageshadow="2"
     inkscape:window-width="1920"
     inkscape:window-height="1054"
     id="namedview5"
     showgrid="true"
     inkscape:zoom="19.990498"
     inkscape:cx="16.720306"
     inkscape:cy="10.393441"
     inkscape:window-x="0"
     inkscape:window-y="0"
     inkscape:window-maximized="1"
     inkscape:current-layer="grocery-15">
    <inkscape:grid
       type="xygrid"
       id="grid4751" />
  </sodipodi:namedview>
  <g
     id="g3"
     transform="matrix(1.0751785,0,0,1.0751785,0.10919773,-0.751785)"
     style="fill:#ff0000">
    <path
       d="m 13.199219,1.5 c 0,0 -1.390413,-0.0412 -1.945313,0.5 C 10.720406,2.5202 10.5,2.9177 10.5,4 H 1.1992188 L 2.59375,8.8144531 c 0.0035,0.0073 0.00987,0.014284 0.013672,0.021484 0.2344,0.6573 0.847125,1.1307031 1.578125,1.1582031 C 4.188547,9.9954402 4.199219,10 4.199219,10 h 6.5 v 0.199219 c 0,0 7.81e-4,0.301172 -0.199219,0.701172 C 10.3,11.300391 10.200391,11.5 9.4003906,11.5 h -6.5 c -1,0 -1,1.5 0,1.5 H 4.0996094 4.1992184 9.099609 9.199218 9.3007804 C 10.500781,13 11.399219,12.299609 11.699219,11.599609 11.999219,10.899609 12,10.300781 12,10.300781 V 10 4 C 12,3.4764 12.228619,3 12.699219,3 H 13.25 C 13.6642,3 14,2.6642 14,2.25 14,1.8358 13.6642,1.5 13.25,1.5 Z M 9.1992188,13 c -0.6,0 -1,0.4 -1,1 0,0.6 0.3999999,1 1,1 0.5999999,0 1.0000002,-0.4 1.0000002,-1 0,-0.6 -0.4000002,-1 -1.0000002,-1 z m -5,0 c -0.6,0 -1,0.4 -1,1 0,0.6 0.3999999,1 1,1 0.6,0 1,-0.4 1,-1 0,-0.6 -0.4000001,-1 -1,-1 z"
       id="path5"
       inkscape:connector-curvature="0"
       style="fill:#ff0000" />
  </g>
</svg>
